<svg id="Calque_1" data-name="Calque 1" xmlns="http://www.w3.org/2000/svg" viewBox="0 0 50.108 49.241">
  <path style="fill:#FFFFFF" d="M43.376,25.659a1.276,1.276,0,0,0,0-1.829L29.937,11.23a1.309,1.309,0,0,0-1.325-.3,1.209,1.209,0,0,0-.891,1.219v7.1h-7.58C13.378,19.245,7.279,24,5.948,30.354L5.7,33.745a1.6,1.6,0,0,0,1.075,1.5,1.366,1.366,0,0,0,1.053-.081,1.417,1.417,0,0,0,.719-.794l.419-1.018a5.108,5.108,0,0,1,4.754-3.11h14v7.1a1.182,1.182,0,0,0,.706,1.149,1.089,1.089,0,0,0,.594.151,1.325,1.325,0,0,0,.9-.369ZM30.32,28.945a1.256,1.256,0,0,0-1.3-1.3h-15.3a7.79,7.79,0,0,0-4.838,1.689,12.024,12.024,0,0,1,11.2-7.49h8.94a1.271,1.271,0,0,0,1.3-1.3v-5.4l10.219,9.6-10.219,9.6Z"/>
</svg>
